HIERARCHY
ROOT Hips
{
  OFFSET 1.44925e-005 102.336 -0.101585
  CHANNELS 6 Xposition Yposition Zposition Zrotation Xrotation Yrotation
  JOINT LeftUpLeg
  {
    OFFSET 8.9458 -8.66707 0.101652
    CHANNELS 3 Zrotation Xrotation Yrotation
    JOINT LeftLeg
    {
      OFFSET 0 -44.4227 1.3727
      CHANNELS 3 Zrotation Xrotation Yrotation
      JOINT LeftFoot
      {
        OFFSET -0.253549 -42.0924 -1.46059
        CHANNELS 3 Zrotation Xrotation Yrotation
        JOINT LeftToes
        {
          OFFSET -0.04 -4.41509 8.4991
          CHANNELS 3 Zrotation Xrotation Yrotation
          End Site
          {
            OFFSET 0.08 -0.047448 9.77979
          }
        }
      }
    }
  }
  JOINT Spine
  {
    OFFSET 0 11.8905 0
    CHANNELS 3 Zrotation Xrotation Yrotation
    JOINT Spine1
    {
      OFFSET 0 25.6574 0.127663
      CHANNELS 3 Zrotation Xrotation Yrotation
      JOINT RightShoulder
      {
        OFFSET -8.99 -0.362252 -0.22
        CHANNELS 3 Zrotation Xrotation Yrotation
        JOINT RightArm
        {
          OFFSET -10.2827 -0.00338 0.322123
          CHANNELS 3 Zrotation Xrotation Yrotation
          JOINT RightForeArm
          {
            OFFSET -26.364 0.099144 -1.42434
            CHANNELS 3 Zrotation Xrotation Yrotation
            JOINT RightHand
            {
              OFFSET -22.0324 0.085362 1.02216
              CHANNELS 3 Zrotation Xrotation Yrotation
              End Site
              {
                OFFSET -13.3284 -0.6 1.50291
              }
            }
          }
        }
      }
      JOINT LeftShoulder1
      {
        OFFSET 8.99 -0.362252 -0.22
        CHANNELS 3 Zrotation Xrotation Yrotation
        JOINT LeftArm
        {
          OFFSET 10.2827 -0.00337999 0.322123
          CHANNELS 3 Zrotation Xrotation Yrotation
          JOINT LeftForeArm
          {
            OFFSET 26.2597 0.099144 -1.42434
            CHANNELS 3 Zrotation Xrotation Yrotation
            JOINT LeftHand
            {
              OFFSET 22.0902 0.085362 1.02216
              CHANNELS 3 Zrotation Xrotation Yrotation
              End Site
              {
                OFFSET 13.419 -0.6 1.50291
              }
            }
          }
        }
      }
      JOINT Head
      {
        OFFSET 0 8.73416 0.011341
        CHANNELS 3 Zrotation Xrotation Yrotation
        End Site
        {
          OFFSET -0.29 12.7742 2.51395
        }
      }
    }
  }
  JOINT RightUpLeg
  {
    OFFSET -8.9458 -8.66707 0.101652
    CHANNELS 3 Zrotation Xrotation Yrotation
    JOINT RightLeg
    {
      OFFSET 0 -44.4227 1.3727
      CHANNELS 3 Zrotation Xrotation Yrotation
      JOINT RightFoot
      {
        OFFSET 0.253549 -42.0924 -1.46059
        CHANNELS 3 Zrotation Xrotation Yrotation
        JOINT RightToes
        {
          OFFSET 0.04 -4.41509 8.4991
          CHANNELS 3 Zrotation Xrotation Yrotation
          End Site
          {
            OFFSET -0.08 -0.137448 9.77979
          }
        }
      }
    }
  }
}
MOTION
Frames:	16
Frame Time:	0.0333333
96.8002 8.17518 6.22679 -93.0741 3.83201 -92.5861 -1.79802 -0.98395 -0.172229 1.39026 8.77212 11.5166 -4.85442 23.324 1.15311 -1.55846e-009 8.75107e-006 -1.47605e-008 10.2606 -3.09845 2.36284 -6.47132 11.4206 3.69088 26.3057 1.59645 0.752161 53.9829 -27.4648 -1.24297 9.01497 57.8769 -0.0189604 3.9245 9.90899 -4.96655 -37.5416 2.89246 -3.1359 -33.6447 -3.60126 -4.45702 -20.1637 55.685 4.19669 5.82328 9.61819 -0.917488 -1.10614 -22.023 -10.2969 1.51808 -1.14562 -1.40347 -0.741565 9.58119 -0.602932 9.9861 14.158 -1.92596 0.0462048 0.00053089 0.662642 
96.8002 8.17518 6.22679 -93.0663 3.88626 -92.5769 -1.73571 -1.02663 -0.11976 1.38306 8.85246 11.4606 -4.84753 23.2779 1.14957 -1.55846e-009 8.75107e-006 -1.47605e-008 10.3603 -3.09132 2.3623 -6.54711 11.398 3.70193 26.3119 1.59645 0.752161 53.9678 -27.4578 -1.27604 9.09196 57.601 -0.0781731 3.39845 9.91069 -4.84966 -37.5594 2.89246 -3.1359 -33.5903 -3.52558 -4.46236 -20.1613 55.5713 4.18451 5.82328 9.61819 -0.917488 -1.05919 -22.0084 -10.2958 1.58018 -1.10635 -1.34361 -0.746113 9.50062 -0.677461 9.91717 14.173 -1.914 0.0462048 0.00053089 0.662642 
96.7993 8.17621 6.22528 -93.0585 3.95772 -92.5562 -1.65194 -1.07631 -0.0561028 1.38003 8.94612 11.3634 -4.81186 23.2516 1.139 -1.55846e-009 8.75107e-006 -1.47605e-008 10.4584 -3.0639 2.35726 -6.60448 11.3418 3.70092 26.3224 1.59645 0.752161 53.9429 -27.4364 -1.33253 9.14747 57.4284 -0.118257 2.99103 9.91152 -4.79128 -37.563 2.89246 -3.1359 -33.564 -3.50001 -4.44148 -20.1585 55.5277 4.17715 5.82328 9.61819 -0.917488 -1.00716 -21.9725 -10.2931 1.65353 -1.05118 -1.28691 -0.731469 9.39533 -0.818442 9.83168 14.2269 -1.90194 0.0462048 0.00053089 0.662642 
96.7944 8.18058 6.21846 -93.0566 4.02224 -92.5315 -1.57326 -1.1189 0.00257844 1.38279 9.03311 11.2407 -4.72391 23.2479 1.11519 -1.55846e-009 8.75107e-006 -1.47605e-008 10.5196 -3.0425 2.34358 -6.63337 11.3025 3.68534 26.318 1.59645 0.752161 53.9397 -27.4405 -1.36619 9.14252 57.4629 -0.12172 3.02897 9.91049 -4.86335 -37.5317 2.89246 -3.1359 -33.5978 -3.52845 -4.407 -20.1542 55.5817 4.16677 5.82328 9.61819 -0.917488 -0.998451 -21.9456 -10.2911 1.72449 -0.98685 -1.22871 -0.716573 9.27839 -0.967549 9.85974 14.3115 -1.91402 0.0462048 0.00053089 0.662642 
96.7857 8.1857 6.20949 -93.0415 4.08014 -92.5132 -1.49922 -1.1834 0.0650815 1.38143 9.137 11.1151 -4.62183 23.2321 1.08716 -1.55846e-009 8.75107e-006 -1.47605e-008 10.5853 -3.06296 2.33162 -6.68308 11.3025 3.67315 26.2946 1.59639 0.752161 53.9807 -27.479 -1.36642 9.10108 57.5722 -0.0972103 3.19466 9.90978 -4.91249 -37.4986 2.89246 -3.1359 -33.6261 -3.53275 -4.38132 -20.1308 55.6008 4.13689 5.82328 9.61819 -0.917488 -1.01791 -21.9341 -10.2906 1.80884 -0.936878 -1.13405 -0.729765 9.15295 -1.0657 9.97624 14.3997 -1.94347 0.0462048 0.00053089 0.662642 
96.7827 8.19059 6.20149 -93.0104 4.13888 -92.4983 -1.4228 -1.26754 0.132323 1.37097 9.24754 10.999 -4.58028 23.205 1.07505 -1.55846e-009 8.75107e-006 -1.47605e-008 10.6639 -3.09217 2.32298 -6.73508 11.2881 3.66298 26.2669 1.59599 0.752161 54.0221 -27.4868 -1.36213 9.08457 57.6433 -0.0784245 3.18514 9.91083 -4.83962 -37.4938 2.89246 -3.1359 -33.6171 -3.50957 -4.34948 -20.0944 55.5627 4.09497 5.82328 9.61819 -0.917488 -1.02662 -21.9119 -10.2889 1.90358 -0.91891 -1.02837 -0.751541 9.05082 -1.11172 10.0288 14.4883 -1.96051 0.0462048 0.00053089 0.662642 
96.7891 8.1943 6.19473 -92.9773 4.20871 -92.4758 -1.33405 -1.34217 0.198229 1.3609 9.33457 10.8847 -4.61371 23.1756 1.08302 -1.55846e-009 8.75107e-006 -1.47605e-008 10.7363 -3.08833 2.3103 -6.74167 11.2256 3.63978 26.2377 1.59538 0.752161 54.0318 -27.4298 -1.3756 9.13435 57.6493 -0.111349 3.04206 9.9125 -4.72194 -37.5094 2.89246 -3.1359 -33.6039 -3.47838 -4.29292 -20.0373 55.5415 4.0272 5.82328 9.61819 -0.917488 -1.02476 -21.8741 -10.2847 1.99836 -0.916644 -0.949803 -0.747016 8.97611 -1.16422 9.96676 14.5795 -1.95793 0.0462048 0.00053089 0.662642 
96.7909 8.19647 6.18929 -92.9746 4.28444 -92.4456 -1.24045 -1.37103 0.263432 1.36047 9.39777 10.7746 -4.6564 23.1291 1.09286 -1.55846e-009 8.75107e-006 -1.47605e-008 10.7939 -3.04224 2.28931 -6.72251 11.1606 3.60642 26.2033 1.59459 0.750559 54.0321 -27.3764 -1.39303 9.19723 57.6281 -0.169049 2.98939 9.9129 -4.69359 -37.5248 2.89246 -3.1359 -33.6068 -3.43798 -4.23546 -19.9641 55.5554 3.93716 5.82328 9.61819 -0.917488 -1.03725 -21.8553 -10.2796 2.08516 -0.87579 -0.891952 -0.72733 8.89799 -1.25438 9.89961 14.6423 -1.95781 0.0462048 0.00053089 0.662642 
96.7817 8.19998 6.18665 -93.0026 4.34614 -92.4201 -1.16532 -1.36519 0.326034 1.36418 9.46093 10.6927 -4.65452 23.0688 1.09025 -1.55846e-009 8.75107e-006 -1.47605e-008 10.8464 -2.98546 2.26707 -6.74273 11.1327 3.58375 26.1912 1.59364 0.743027 54.0276 -27.3879 -1.40939 9.19216 57.5717 -0.164967 3.12271 9.91127 -4.80887 -37.5227 2.89246 -3.1359 -33.6201 -3.43786 -4.20215 -19.9222 55.5874 3.88676 5.82328 9.61819 -0.917488 -1.05054 -21.8666 -10.2709 2.15492 -0.787969 -0.830965 -0.725746 8.80252 -1.36311 9.89975 14.6604 -1.95766 0.0462048 0.00053089 0.662642 
96.7723 8.20638 6.1866 -93.0252 4.39598 -92.4013 -1.10467 -1.37344 0.386225 1.36452 9.53863 10.6328 -4.6315 23.0283 1.08269 -1.55846e-009 8.75107e-006 -1.47605e-008 10.9076 -2.92364 2.2505 -6.80979 11.0766 3.57681 26.2276 1.59255 0.732082 53.9796 -27.423 -1.46746 9.13388 57.4242 -0.0822394 3.28665 9.90886 -4.97509 -37.4885 2.89246 -3.1359 -33.654 -3.53223 -4.16329 -19.9319 55.654 3.91262 5.82328 9.61819 -0.917488 -1.02972 -21.8613 -10.2581 2.21436 -0.701244 -0.765342 -0.736578 8.69937 -1.48246 9.91559 14.6843 -1.95793 0.0462048 0.00053089 0.662642 
96.7691 8.21318 6.18473 -93.0161 4.45533 -92.3793 -1.03057 -1.4242 0.449418 1.36409 9.62797 10.5587 -4.64034 23.016 1.08462 -1.55846e-009 8.75107e-006 -1.47605e-008 10.9752 -2.84658 2.23904 -6.86304 10.932 3.56825 26.2711 1.59137 0.724182 53.8991 -27.4326 -1.58957 9.0881 57.2783 0.00562662 3.28449 9.90851 -4.9987 -37.4386 2.89246 -3.1359 -33.7049 -3.64108 -4.08423 -19.946 55.7324 3.94582 5.82328 9.61819 -0.917488 -0.993881 -21.8054 -10.2535 2.28193 -0.65362 -0.703033 -0.730735 8.59827 -1.61743 9.89582 14.7603 -1.95905 0.0462048 0.00053089 0.662642 
96.7686 8.21788 6.17824 -92.9845 4.51732 -92.3521 -0.94882 -1.49894 0.508575 1.36603 9.71347 10.475 -4.68468 23.0073 1.09616 -1.55846e-009 8.75107e-006 -1.47605e-008 11.017 -2.80934 2.2301 -6.85425 10.8089 3.54505 26.2591 1.5901 0.725768 53.8654 -27.4442 -1.69427 9.04655 57.3591 0.0605688 3.17651 9.91122 -4.8125 -37.4237 2.89246 -3.1359 -33.7292 -3.65564 -4.00637 -19.9218 55.7583 3.91918 5.82328 9.61819 -0.917488 -0.995116 -21.7482 -10.2562 2.35143 -0.638979 -0.645591 -0.71152 8.5079 -1.73684 9.87068 14.8501 -1.96067 0.0462048 0.00053089 0.662642 
96.7691 8.22218 6.16852 -92.9557 4.57247 -92.3228 -0.872126 -1.57339 0.565923 1.36585 9.80399 10.3987 -4.71699 22.9839 1.10396 -1.55846e-009 8.75107e-006 -1.47605e-008 11.025 -2.87925 2.219 -6.80647 10.8608 3.50884 26.219 1.58879 0.729712 53.8913 -27.4696 -1.67938 8.98592 57.6264 0.100632 3.18097 9.91381 -4.62762 -37.4589 2.89246 -3.1359 -33.7163 -3.64812 -3.99558 -19.8942 55.7587 3.88351 5.82328 9.61819 -0.917488 -1.02716 -21.7585 -10.2448 2.41981 -0.617158 -0.577318 -0.702999 8.41341 -1.83132 9.86726 14.9082 -1.9625 0.0462048 0.00053089 0.662642 
96.7692 8.2283 6.1607 -92.9391 4.62281 -92.3011 -0.804468 -1.63246 0.620852 1.36204 9.88988 10.339 -4.70038 22.9624 1.09863 -1.55846e-009 8.75107e-006 -1.47605e-008 11.0281 -2.99922 2.20739 -6.77111 11.016 3.47647 26.2371 1.58746 0.729652 53.8815 -27.4463 -1.58238 8.97854 57.7205 0.100444 3.29175 9.91344 -4.65417 -37.4909 2.89246 -3.1359 -33.7182 -3.74659 -4.02823 -19.9026 55.8218 3.90412 5.82328 9.61819 -0.917488 -1.03529 -21.8167 -10.2197 2.48727 -0.58275 -0.504234 -0.706763 8.32398 -1.91053 9.86447 14.9446 -1.96552 0.0462048 0.00053089 0.662642 
96.7722 8.23505 6.15691 -92.9207 4.68825 -92.2909 -0.724373 -1.68768 0.682425 1.35808 9.9687 10.2681 -4.66119 22.9354 1.08819 -1.55846e-009 8.75107e-006 -1.47605e-008 11.0833 -3.04218 2.20308 -6.79007 11.0477 3.46592 26.3146 1.58613 0.722809 53.7915 -27.359 -1.54798 9.07839 57.5364 0.0221417 3.30058 9.91192 -4.76316 -37.4803 2.89246 -3.1359 -33.7491 -3.86197 -4.01749 -19.9099 55.9024 3.92746 5.82328 9.61819 -0.917488 -1.01292 -21.8401 -10.216 2.56782 -0.558622 -0.430508 -0.704662 8.24629 -1.98824 9.85497 14.9926 -1.96959 0.0462048 0.00053089 0.662642 
96.7816 8.23975 6.15478 -92.8938 4.76569 -92.2842 -0.629929 -1.75006 0.752649 1.35135 10.0513 10.1652 -4.6532 22.8734 1.08377 -1.55846e-009 8.75107e-006 -1.47605e-008 11.1993 -2.99069 2.20701 -6.8659 10.9091 3.47659 26.3588 1.58484 0.715055 53.7121 -27.3007 -1.6286 9.16402 57.43 -0.0456951 3.2156 9.91245 -4.72587 -37.4634 2.89246 -3.1359 -33.743 -3.80459 -3.94757 -19.8673 55.8617 3.87092 5.82328 9.61819 -0.917488 -1.00061 -21.8015 -10.2443 2.65722 -0.548238 -0.355199 -0.696167 8.17192 -2.05689 9.85805 15.0402 -1.9731 0.0462048 0.00053089 0.662642 
